<svg width="24" height="25" viewBox="0 0 24 25" fill="none" xmlns="http://www.w3.org/2000/svg">
<g clip-path="url(#clip0_6423_7895)">
<path d="M9.43319 9.79761C8.87519 9.79761 8.42102 10.2564 8.42102 10.8228C8.42102 11.3892 8.87515 11.8484 9.43319 11.8484C9.99195 11.8484 10.446 11.3892 10.446 10.8228C10.446 10.2564 9.99199 9.79761 9.43319 9.79761Z" fill="black"/>
<path d="M14.5591 9.78967C13.9957 9.78967 13.5387 10.2522 13.5387 10.8229C13.5387 11.3936 13.9957 11.8562 14.5591 11.8562C15.1219 11.8562 15.5789 11.3936 15.5789 10.8229C15.5788 10.2522 15.1218 9.78967 14.5591 9.78967Z" fill="black"/>
<path d="M21.8478 18.3167C22.4672 17.078 22.7877 15.677 22.7905 14.1532L24 13.8723L23.6512 12.3699L22.6821 12.5949C22.5662 11.7648 22.3592 10.9405 22.067 10.1404C22.9286 7.70375 23.0222 4.88093 22.3238 2.13587L22.13 1.37378L21.3718 1.58242C21.0446 1.67251 18.2038 2.48214 16.851 3.79024C16.6514 3.67446 16.4488 3.56463 16.2428 3.46239C14.886 2.78922 13.4585 2.44792 11.9999 2.44792C10.5413 2.44792 9.11383 2.78922 7.75708 3.46239C7.55101 3.56463 7.34842 3.67441 7.14883 3.79028C5.79601 2.48219 2.95529 1.67247 2.62805 1.58247L1.86989 1.37383L1.67602 2.13592C0.977627 4.88093 1.07124 7.70374 1.93289 10.1404C1.64072 10.9405 1.43372 11.7649 1.3178 12.595L0.348985 12.37L0 13.8723L1.20933 14.1531C1.21214 15.677 1.53263 17.078 2.15208 18.3167L0 18.8165L0.348891 20.319L3.01918 19.699C3.42273 20.2226 3.89162 20.7063 4.42435 21.1456C6.36451 22.7453 9.05496 23.6263 11.9999 23.6263C14.9449 23.6263 17.6353 22.7453 19.5755 21.1456C20.1083 20.7062 20.5771 20.2225 20.9807 19.6989L23.6512 20.319L24 18.8165L21.8478 18.3167ZM2.99321 3.31216C3.87305 3.6138 5.09593 4.1126 5.83346 4.6885C5.30424 5.10883 4.80446 5.58227 4.33815 6.10769C3.81601 6.69598 3.35302 7.33179 2.95313 8.00089C2.6753 6.50834 2.68674 4.90788 2.99321 3.31216ZM10.9937 16.8754C10.5947 16.4766 10.3859 16.0579 10.3859 15.8505C10.3859 15.6653 10.4176 15.652 10.5356 15.6023C10.8719 15.4608 11.5324 15.4445 12 15.4445C12.4676 15.4445 13.1281 15.4608 13.4644 15.6023C13.5824 15.6519 13.6141 15.6653 13.6141 15.8505C13.6141 16.0579 13.4053 16.4765 13.0063 16.8754C12.6139 17.2675 12.195 17.4791 12 17.4791C11.805 17.4791 11.3861 17.2675 10.9937 16.8754ZM20.2882 17.9546L17.3159 17.2644L16.9671 18.7669L19.2879 19.3058C19.0734 19.5337 18.8425 19.7507 18.5942 19.9554C17.0967 21.1902 15.0509 21.9255 12.7712 22.0607V18.8676C13.3767 18.6339 13.8699 18.1929 14.0966 17.9663C14.4153 17.6478 15.1565 16.804 15.1565 15.8505C15.1565 15.0704 14.768 14.4774 14.0626 14.1806C13.5923 13.9827 12.9947 13.902 12 13.902C11.0052 13.902 10.4076 13.9827 9.93738 14.1806C9.23191 14.4773 8.84336 15.0704 8.84336 15.8505C8.84336 16.804 9.5846 17.6478 9.9033 17.9663C10.13 18.1929 10.6232 18.6339 11.2287 18.8676V22.0607C8.94897 21.9255 6.90311 21.1902 5.40559 19.9554C5.15729 19.7507 4.92638 19.5338 4.71188 19.3058L7.03295 18.7669L6.68401 17.2644L3.71157 17.9546C3.13576 16.9417 2.81349 15.7829 2.75996 14.5133L6.68401 15.4245L7.0329 13.922L2.82633 12.9451C3.08785 10.8496 4.02699 8.78192 5.49174 7.13149C7.28955 5.10593 9.60082 3.99035 11.9999 3.99035C14.399 3.99035 16.7102 5.10593 18.508 7.13149C19.9728 8.78192 20.912 10.8497 21.1734 12.9452L16.9671 13.922L17.3159 15.4245L21.2397 14.5133C21.1863 15.7828 20.864 16.9416 20.2882 17.9546ZM21.0467 8.00079C20.6468 7.33174 20.1838 6.69593 19.6617 6.1076C19.1954 5.58218 18.6957 5.10879 18.1665 4.68855C18.9031 4.114 20.1265 3.61483 21.0067 3.31263C21.3131 4.90816 21.3245 6.50843 21.0467 8.00079Z" fill="black"/>
</g>
<defs>
<clipPath id="clip0_6423_7895">
<rect width="24" height="24" fill="white" transform="translate(0 0.5)"/>
</clipPath>
</defs>
</svg>
