<svg width="75" height="75" viewBox="0 0 75 75" fill="none" xmlns="http://www.w3.org/2000/svg">
<path fill-rule="evenodd" clip-rule="evenodd" d="M17.4059 18.9375C18.4059 24.25 22.4372 28.125 27.0622 28.125C27.5309 28.125 27.9684 28.0625 28.6247 27.9375C31.2184 27.375 33.4372 25.625 34.7184 23.0625C35.8747 20.7813 36.2184 18.0625 35.7184 15.4062C34.7184 10.0938 30.6872 6.21875 26.0622 6.21875C25.5622 6.21875 25.1559 6.28125 24.4997 6.40625C21.9059 6.96875 19.6872 8.71875 18.4059 11.2812C17.2497 13.5625 16.9059 16.2812 17.4059 18.9375ZM25.6559 12.5625L26.0622 12.5C27.4059 12.5 29.0934 14.0312 29.5622 16.5938C29.8122 17.9062 29.6559 19.25 29.1247 20.2812C28.6872 21.125 28.0622 21.6875 27.4372 21.8125C27.4372 21.8125 27.0622 21.875 27.0309 21.875C25.6872 21.875 23.9997 20.3125 23.5309 17.7812C23.2809 16.4688 23.4372 15.125 23.9684 14.0938C24.4059 13.25 25.0309 12.6875 25.6559 12.5625ZM13.3122 43.75C11.6247 43.75 9.90596 43.2188 8.34346 42.1562C6.28096 40.7812 4.65596 38.5625 3.78096 35.9062C1.90596 30.0625 4.18721 24.125 8.93721 22.3438C10.031 22 10.8747 21.8438 11.6872 21.8438C13.3747 21.8438 15.0935 22.4062 16.656 23.4375C18.6872 24.7812 20.281 27 21.2185 29.6562V29.7188C23.0622 35.5312 20.8122 41.4688 16.0622 43.25C14.9685 43.5938 14.1247 43.75 13.3122 43.75ZM11.6872 28.125C11.531 28.125 11.281 28.1875 10.9685 28.2813C9.74971 28.75 8.84346 31.2188 9.71846 33.9688C10.156 35.2812 10.906 36.3438 11.8122 36.9688C12.3435 37.3125 12.8435 37.5 13.3122 37.5C13.4685 37.5 13.7185 37.4375 14.031 37.3438C15.2497 36.875 16.156 34.4062 15.281 31.6875C14.8122 30.3438 14.0622 29.25 13.1872 28.6562C12.656 28.3125 12.156 28.125 11.6872 28.125ZM61.6874 43.7499C60.8749 43.7499 60.0312 43.5936 59.0937 43.3124C54.1874 41.4999 51.9062 35.5624 53.7812 29.7499C54.6874 27.1249 56.2812 24.9374 58.2812 23.4999C60.4999 21.9374 62.9687 21.3749 65.9062 22.3124C65.9519 22.3124 65.9809 22.3291 66.0177 22.3504C66.0312 22.3581 66.0457 22.3665 66.0624 22.3749C70.8124 24.1249 73.0937 30.0624 71.2187 35.9061C70.3124 38.5311 68.7187 40.7186 66.7187 42.1561C65.2187 43.2186 63.4687 43.7811 61.6874 43.7811V43.7499ZM63.3124 28.1249C62.8124 28.1249 62.3437 28.2811 61.8749 28.6249C60.9374 29.2811 60.1562 30.4061 59.6874 31.7186C58.8124 34.4061 59.7187 36.9061 61.0937 37.4061C61.3437 37.4686 61.5624 37.4999 61.6874 37.4999C62.1874 37.4999 62.6562 37.3436 63.1249 36.9999C64.0624 36.3436 64.8437 35.2186 65.3124 33.9061C66.1562 31.2499 65.3124 28.7811 63.9687 28.2499C63.6249 28.1561 63.4374 28.1249 63.3124 28.1249ZM47.9996 28.1249C47.5808 28.1249 47.2118 28.075 46.8036 28.0198L46.6559 27.9999C46.6559 27.9999 46.4996 27.9999 46.4684 27.9687C43.8746 27.4687 41.6871 25.7499 40.3121 23.1562C39.1246 20.8124 38.7809 18.0937 39.2809 15.4374C40.3746 9.56243 45.3434 5.56243 50.2809 6.40618C53.0934 6.96868 55.2809 8.68743 56.5934 11.3124C57.7496 13.5937 58.0934 16.3124 57.5934 18.9687C56.6871 24.1874 52.5621 28.1562 47.9996 28.1562V28.1249ZM47.6559 21.8124C47.8582 21.8574 47.8341 21.8377 47.8163 21.8231C47.8094 21.8174 47.8034 21.8124 47.8121 21.8124C49.3746 21.8124 51.0621 20.1874 51.4684 17.8124C51.7184 16.4374 51.5621 15.0937 51.0309 14.0624C50.5934 13.1874 49.9996 12.6562 49.2809 12.5312L48.9371 12.4687C47.6246 12.4687 45.9059 14.0312 45.4371 16.5624C45.1871 17.8749 45.3434 19.2187 45.8746 20.2499C46.3121 21.0937 46.9371 21.6249 47.6559 21.7812V21.8124ZM15.625 54.4998C15.625 64.2811 26.9687 68.7498 37.5 68.7498V68.7186C48.0312 68.7186 59.375 64.2498 59.375 54.4686C59.375 48.6248 55.2187 41.9998 47 34.8436C41.6875 30.1561 33.2812 30.1873 28 34.8436C19.7812 42.0311 15.625 48.6248 15.625 54.4998ZM32.125 39.5623C33.625 38.2186 35.5312 37.4998 37.5 37.4998C39.4687 37.4998 41.375 38.2186 42.875 39.5623C49.5 45.3436 53.125 50.6248 53.125 54.4998C53.125 59.6873 45.0625 62.4998 37.5 62.4998C29.9375 62.4998 21.875 59.6873 21.875 54.4998C21.875 50.6561 25.5 45.3436 32.125 39.5623Z" fill="black"/>
</svg>
