<svg width="24" height="25" viewBox="0 0 24 25" fill="none" xmlns="http://www.w3.org/2000/svg">
<path fill-rule="evenodd" clip-rule="evenodd" d="M7.94805 3.70117C4.80002 3.70117 2.24805 6.25314 2.24805 9.40117V15.4168C2.24805 18.5648 4.80003 21.1168 7.94805 21.1168H16.0358C19.1838 21.1168 21.7358 18.5648 21.7358 15.4168V9.40117C21.7358 6.25315 19.1838 3.70117 16.0358 3.70117H7.94805ZM4.24805 9.40117C4.24805 7.35772 5.90459 5.70117 7.94805 5.70117H16.0358C18.0793 5.70117 19.7358 7.35772 19.7358 9.40117V15.4168C19.7358 17.4602 18.0793 19.1168 16.0358 19.1168H7.94805C5.9046 19.1168 4.24805 17.4602 4.24805 15.4168V9.40117ZM11.8201 10.4202C11.8201 11.5192 10.9291 12.4102 9.83009 12.4102C8.73104 12.4102 7.84009 11.5192 7.84009 10.4202C7.84009 9.32113 8.73104 8.43018 9.83009 8.43018C10.9291 8.43018 11.8201 9.32113 11.8201 10.4202ZM6.39014 15.1802C6.39014 14.4898 6.94978 13.9302 7.64014 13.9302H12.0101C12.7005 13.9302 13.2601 14.4898 13.2601 15.1802C13.2601 15.8705 12.7005 16.4302 12.0101 16.4302H7.64014C6.94978 16.4302 6.39014 15.8705 6.39014 15.1802Z" fill="black"/>
</svg>
