<svg width="24" height="25" viewBox="0 0 24 25" fill="none" xmlns="http://www.w3.org/2000/svg">
<path fill-rule="evenodd" clip-rule="evenodd" d="M6 5.25C3.65279 5.25 1.75 7.15279 1.75 9.5V15.5C1.75 17.8472 3.65279 19.75 6 19.75H18C20.3472 19.75 22.25 17.8472 22.25 15.5V9.5C22.25 7.15279 20.3472 5.25 18 5.25H6ZM4.25 9.5C4.25 8.5335 5.0335 7.75 6 7.75H18C18.9665 7.75 19.75 8.5335 19.75 9.5V15.5C19.75 16.4665 18.9665 17.25 18 17.25H6C5.0335 17.25 4.25 16.4665 4.25 15.5V9.5ZM9.80431 14.5001V13.7801L11.5923 12.2981C11.7723 12.1421 11.9003 12.0181 11.9763 11.9261C12.0523 11.8341 12.0903 11.7301 12.0903 11.6141C12.0903 11.4661 12.0403 11.3461 11.9403 11.2541C11.8403 11.1581 11.7123 11.1101 11.5563 11.1101C11.3763 11.1101 11.2263 11.1761 11.1063 11.3081C10.9903 11.4401 10.9303 11.6201 10.9263 11.8481H9.82231C9.81031 11.5201 9.87631 11.2241 10.0203 10.9601C10.1683 10.6961 10.3783 10.4901 10.6503 10.3421C10.9223 10.1941 11.2323 10.1201 11.5803 10.1201C11.8963 10.1201 12.1783 10.1801 12.4263 10.3001C12.6783 10.4161 12.8763 10.5801 13.0203 10.7921C13.1643 11.0001 13.2363 11.2361 13.2363 11.5001C13.2363 11.7481 13.1663 11.9741 13.0263 12.1781C12.8863 12.3781 12.6843 12.5841 12.4203 12.7961L11.5023 13.5281V13.5881H13.1223V14.5001H9.80431ZM8.66942 14.5001H7.44542V11.5721H7.38542L6.41942 12.2801V11.0921L7.60742 10.2041H8.66942V14.5001ZM14.9234 14.3741C15.1914 14.5181 15.4894 14.5901 15.8174 14.5901C16.1534 14.5901 16.4554 14.5301 16.7234 14.4101C16.9914 14.2861 17.2014 14.1161 17.3534 13.9001C17.5054 13.6801 17.5814 13.4321 17.5814 13.1561C17.5814 12.9401 17.5334 12.7381 17.4374 12.5501C17.3414 12.3581 17.2094 12.1981 17.0414 12.0701C16.8774 11.9421 16.6894 11.8561 16.4774 11.8121L17.4074 10.9121V10.2041H14.3174V11.1161H15.9554V11.1761L15.2174 11.8841L15.4694 12.5441C15.5094 12.5241 15.5594 12.5081 15.6194 12.4961C15.6834 12.4801 15.7454 12.4721 15.8054 12.4721C15.9774 12.4721 16.1194 12.5281 16.2314 12.6401C16.3434 12.7481 16.3994 12.8861 16.3994 13.0541C16.3994 13.2221 16.3434 13.3621 16.2314 13.4741C16.1194 13.5821 15.9774 13.6361 15.8054 13.6361C15.6254 13.6361 15.4734 13.5701 15.3494 13.4381C15.2294 13.3021 15.1694 13.1341 15.1694 12.9341H14.0294C14.0414 13.2501 14.1254 13.5341 14.2814 13.7861C14.4414 14.0341 14.6554 14.2301 14.9234 14.3741Z" fill="black"/>
</svg>
