<svg width="24" height="25" viewBox="0 0 24 25" fill="none" xmlns="http://www.w3.org/2000/svg">
<path fill-rule="evenodd" clip-rule="evenodd" d="M5.56991 6.55999C5.88991 8.25999 7.17991 9.49999 8.65991 9.49999C8.80991 9.49999 8.94991 9.47999 9.15991 9.43999C9.98991 9.25999 10.6999 8.69999 11.1099 7.87999C11.4799 7.14999 11.5899 6.27999 11.4299 5.42999C11.1099 3.72999 9.81991 2.48999 8.33991 2.48999C8.17991 2.48999 8.04991 2.50999 7.83991 2.54999C7.00991 2.72999 6.29991 3.28999 5.88991 4.10999C5.51991 4.83999 5.40991 5.70999 5.56991 6.55999ZM8.20991 4.51999L8.33991 4.49999C8.76991 4.49999 9.30991 4.98999 9.45991 5.80999C9.53991 6.22999 9.48991 6.65999 9.31991 6.98999C9.17991 7.25999 8.97991 7.43999 8.77991 7.47999C8.77991 7.47999 8.65991 7.49999 8.64991 7.49999C8.21991 7.49999 7.67991 6.99999 7.52991 6.18999C7.44991 5.76999 7.49991 5.33999 7.66991 5.00999C7.80991 4.73999 8.00991 4.55999 8.20991 4.51999ZM4.25992 14.5C3.71992 14.5 3.16992 14.33 2.66992 13.99C2.00992 13.55 1.48992 12.84 1.20992 11.99C0.609918 10.12 1.33992 8.21999 2.85992 7.64999C3.20992 7.53999 3.47992 7.48999 3.73992 7.48999C4.27992 7.48999 4.82992 7.66999 5.32992 7.99999C5.97992 8.42999 6.48992 9.13999 6.78992 9.98999V10.01C7.37992 11.87 6.65992 13.77 5.13992 14.34C4.78992 14.45 4.51992 14.5 4.25992 14.5ZM3.73992 9.49999C3.68992 9.49999 3.60992 9.51999 3.50992 9.54999C3.11992 9.69999 2.82992 10.49 3.10992 11.37C3.24992 11.79 3.48992 12.13 3.77992 12.33C3.94992 12.44 4.10992 12.5 4.25992 12.5C4.30992 12.5 4.38992 12.48 4.48992 12.45C4.87992 12.3 5.16992 11.51 4.88992 10.64C4.73992 10.21 4.49992 9.85999 4.21992 9.66999C4.04992 9.55999 3.88992 9.49999 3.73992 9.49999ZM19.74 14.5C19.48 14.5 19.21 14.45 18.91 14.36C17.34 13.78 16.61 11.88 17.21 10.02C17.5 9.17995 18.01 8.47995 18.65 8.01995C19.36 7.51995 20.15 7.33995 21.09 7.63995C21.1046 7.63995 21.1139 7.64531 21.1257 7.65211C21.13 7.65459 21.1346 7.65727 21.14 7.65995C22.66 8.21995 23.39 10.12 22.79 11.99C22.5 12.83 21.99 13.53 21.35 13.99C20.87 14.33 20.31 14.51 19.74 14.51V14.5ZM20.26 9.49995C20.1 9.49995 19.95 9.54995 19.8 9.65995C19.5 9.86995 19.25 10.23 19.1 10.65C18.82 11.51 19.11 12.31 19.55 12.47C19.63 12.49 19.7 12.5 19.74 12.5C19.9 12.5 20.05 12.45 20.2 12.34C20.5 12.13 20.75 11.77 20.9 11.35C21.17 10.5 20.9 9.70995 20.47 9.53995C20.36 9.50995 20.3 9.49995 20.26 9.49995ZM15.3599 9.49997C15.2259 9.49997 15.1078 9.484 14.9772 9.46633L14.9299 9.45997C14.9299 9.45997 14.8799 9.45997 14.8699 9.44997C14.0399 9.28997 13.3399 8.73997 12.8999 7.90997C12.5199 7.15997 12.4099 6.28997 12.5699 5.43997C12.9199 3.55997 14.5099 2.27997 16.0899 2.54997C16.9899 2.72997 17.6899 3.27997 18.1099 4.11997C18.4799 4.84997 18.5899 5.71997 18.4299 6.56997C18.1399 8.23997 16.8199 9.50997 15.3599 9.50997V9.49997ZM15.2499 7.47997C15.3146 7.49435 15.3069 7.48804 15.3012 7.48337C15.299 7.48154 15.2971 7.47997 15.2999 7.47997C15.7999 7.47997 16.3399 6.95997 16.4699 6.19997C16.5499 5.75997 16.4999 5.32997 16.3299 4.99997C16.1899 4.71997 15.9999 4.54997 15.7699 4.50997L15.6599 4.48997C15.2399 4.48997 14.6899 4.98997 14.5399 5.79997C14.4599 6.21997 14.5099 6.64997 14.6799 6.97997C14.8199 7.24997 15.0199 7.41997 15.2499 7.46997V7.47997ZM5 17.9399C5 21.0699 8.63 22.4999 12 22.4999V22.4899C15.37 22.4899 19 21.0599 19 17.9299C19 16.0599 17.67 13.9399 15.04 11.6499C13.34 10.1499 10.65 10.1599 8.96 11.6499C6.33 13.9499 5 16.0599 5 17.9399ZM10.28 13.1599C10.76 12.7299 11.37 12.4999 12 12.4999C12.63 12.4999 13.24 12.7299 13.72 13.1599C15.84 15.0099 17 16.6999 17 17.9399C17 19.5999 14.42 20.4999 12 20.4999C9.58 20.4999 7 19.5999 7 17.9399C7 16.7099 8.16 15.0099 10.28 13.1599Z" fill="black"/>
</svg>
