<svg width="24" height="25" viewBox="0 0 24 25" fill="none" xmlns="http://www.w3.org/2000/svg">
<path fill-rule="evenodd" clip-rule="evenodd" d="M6.23852 3.93675C5.72641 4.23752 5.04837 4.6846 4.48041 5.21771C3.86291 5.79732 3.51992 6.34402 3.46684 6.79893C3.42978 7.11651 3.55541 7.71229 3.94992 8.58256C4.32506 9.41009 4.87533 10.342 5.49386 11.2675C6.73532 13.1253 8.17135 14.8394 8.80383 15.4719C9.59897 16.2671 11.4981 18.0285 13.5522 19.3621C14.5821 20.0307 15.6019 20.5593 16.5078 20.8219C17.4258 21.088 18.0722 21.0391 18.5072 20.7875C19.5987 20.1563 20.2369 19.0164 20.5517 18.2586L17.4123 15.6798L15.8832 16.4101C15.3862 16.6475 14.791 16.6783 14.2529 16.4373C13.4962 16.0986 11.7739 15.2572 10.4693 14.0439C9.13444 12.8025 8.28174 11.0109 7.94447 10.2215C7.69679 9.64181 7.76507 9.00895 8.05311 8.50487L8.82655 7.15136L6.23852 3.93675ZM5.29986 2.1689C6.1629 1.66888 7.19606 1.93686 7.76944 2.64906L10.3844 5.89715C10.9003 6.53798 10.9712 7.42935 10.563 8.14364L9.80126 9.47674C10.1265 10.2297 10.8379 11.6555 11.8313 12.5793C12.8702 13.5455 14.315 14.2715 15.0379 14.5974L16.5503 13.8751C17.2509 13.5405 18.0818 13.6416 18.6818 14.1344L21.8681 16.7517C22.4586 17.2367 22.7746 18.0822 22.4495 18.9008C22.095 19.7936 21.2348 21.5204 19.5084 22.5188C18.398 23.161 17.1126 23.0795 15.951 22.7428C14.7774 22.4026 13.5698 21.7581 12.4631 21.0396C10.244 19.5988 8.23301 17.7295 7.38962 16.8861C6.64426 16.1408 5.12733 14.3187 3.83098 12.3788C3.1806 11.4055 2.56576 10.3732 2.12835 9.40832C1.71032 8.48617 1.37598 7.46131 1.48031 6.56714C1.61671 5.39818 2.38765 4.43903 3.11164 3.75946C3.86119 3.05591 4.71874 2.50559 5.29986 2.1689Z" fill="black"/>
</svg>
