<svg width="24" height="25" viewBox="0 0 24 25" fill="none" xmlns="http://www.w3.org/2000/svg">
<path fill-rule="evenodd" clip-rule="evenodd" d="M9 7.5C9 5.84315 10.3431 4.5 12 4.5C13.6569 4.5 15 5.84315 15 7.5C15 9.15685 13.6569 10.5 12 10.5C10.3431 10.5 9 9.15685 9 7.5ZM12 2.5C9.23858 2.5 7 4.73858 7 7.5C7 10.2614 9.23858 12.5 12 12.5C14.7614 12.5 17 10.2614 17 7.5C17 4.73858 14.7614 2.5 12 2.5ZM5.21715 17.6396C5.80298 17.0239 6.4506 16.5111 7.43545 16.1379C8.44163 15.7566 9.85655 15.5 12 15.5C14.1435 15.5 15.5584 15.7566 16.5646 16.1379C17.5494 16.5111 18.197 17.0239 18.7828 17.6396C18.9132 17.7767 19 17.986 19 18.2383L19 20.5H5.00002L5 18.2383C5 17.986 5.08674 17.7767 5.21715 17.6396ZM4.00002 22.5C3.44774 22.5 3.00002 22.0523 3.00002 21.5L3 18.2383C2.99999 17.5376 3.24174 16.8143 3.76822 16.261C4.50789 15.4836 5.39753 14.7713 6.72676 14.2676C8.03467 13.772 9.71067 13.5 12 13.5C14.2894 13.5 15.9654 13.772 17.2733 14.2676C18.6025 14.7713 19.4921 15.4836 20.2318 16.261C20.7582 16.8143 21 17.5376 21 18.2383L21 21.5C21 21.7652 20.8947 22.0196 20.7071 22.2071C20.5196 22.3946 20.2652 22.5 20 22.5H4.00002Z" fill="black"/>
</svg>
